<?xml version="1.0" standalone="no"?>
<!DOCTYPE svg PUBLIC "-//W3C//DTD SVG 20010904//EN"
 "http://www.w3.org/TR/2001/REC-SVG-20010904/DTD/svg10.dtd">
<svg version="1.0" xmlns="http://www.w3.org/2000/svg"
 width="310.000000pt" height="310.000000pt" viewBox="0 0 310.000000 310.000000"
 preserveAspectRatio="xMidYMid meet">
<metadata>
Created by potrace 1.11, written by Peter Selinger 2001-2013
</metadata>
<g transform="translate(0.000000,310.000000) scale(0.100000,-0.100000)"
fill="#000000" stroke="none">
<path d="M672 2889 c-93 -24 -139 -47 -220 -106 -197 -145 -290 -376 -251
-622 42 -271 244 -474 504 -507 269 -34 501 58 632 251 90 131 117 224 115
390 -2 231 -137 444 -351 550 -116 59 -303 78 -429 44z"/>
<path d="M2208 2905 c-1 -1 -22 -5 -45 -8 -203 -28 -408 -202 -479 -407 -25
-69 -42 -182 -38 -238 1 -15 3 -45 4 -67 1 -22 6 -54 11 -71 5 -17 11 -40 13
-51 13 -64 75 -162 151 -239 124 -124 251 -176 435 -176 152 -1 262 29 368
100 183 121 282 315 276 542 -1 52 -5 106 -8 120 -4 14 -9 36 -12 50 -3 14
-21 59 -41 100 -71 148 -252 294 -408 331 -46 10 -219 21 -227 14z"/>
<path d="M2192 1449 c-81 -10 -121 -23 -207 -68 -178 -92 -306 -275 -332 -473
-53 -391 206 -702 592 -714 202 -6 356 54 490 190 116 117 168 257 168 446 0
99 -3 126 -26 193 -101 293 -375 463 -685 426z"/>
</g>
</svg>
