<?xml version="1.0" standalone="no"?>
<!DOCTYPE svg PUBLIC "-//W3C//DTD SVG 20010904//EN"
 "http://www.w3.org/TR/2001/REC-SVG-20010904/DTD/svg10.dtd">
<svg version="1.0" xmlns="http://www.w3.org/2000/svg"
 width="472.000000pt" height="472.000000pt" viewBox="0 0 472.000000 472.000000"
 preserveAspectRatio="xMidYMid meet">
<metadata>
Created by potrace 1.11, written by Peter Selinger 2001-2013
</metadata>
<g transform="translate(0.000000,472.000000) scale(0.100000,-0.100000)"
fill="#000000" stroke="none">
<path d="M4117 3305 c-128 -45 -160 -198 -66 -317 l32 -39 -23 -16 c-169 -119
-136 -342 59 -400 97 -28 235 -1 298 59 l22 21 37 -37 c38 -38 51 -41 68 -13
8 13 3 24 -27 55 l-37 38 21 48 c12 27 23 80 26 122 6 71 5 74 -16 74 -33 0
-34 -2 -36 -50 -3 -48 -19 -116 -34 -139 -7 -11 -33 8 -115 89 -91 89 -104
105 -89 113 51 27 118 87 141 126 30 52 34 129 9 177 -45 88 -165 127 -270 89z
m163 -57 c58 -35 83 -103 61 -161 -15 -38 -69 -95 -117 -123 l-44 -26 -33 29
c-116 99 -127 220 -25 283 41 25 116 24 158 -2z m-51 -432 c53 -52 113 -109
134 -127 36 -31 37 -33 20 -52 -46 -52 -167 -77 -252 -51 -139 41 -168 219
-48 297 22 15 43 27 46 27 2 0 47 -43 100 -94z"/>
<path d="M2342 3098 c0 -62 -1 -124 -1 -138 l-1 -24 -29 31 c-117 128 -347 53
-378 -124 -18 -107 4 -191 68 -255 86 -86 217 -92 304 -13 27 25 35 29 36 16
1 -9 2 -25 3 -36 0 -13 9 -21 24 -23 l22 -3 0 340 0 341 -24 0 -25 0 1 -112z
m-94 -133 c61 -39 93 -103 95 -190 1 -85 -37 -156 -103 -190 -66 -34 -157 -18
-206 37 -70 77 -76 220 -12 298 19 23 70 57 93 62 38 9 105 0 133 -17z"/>
<path d="M231 3189 c-83 -25 -157 -90 -199 -179 -23 -48 -27 -68 -27 -150 1
-76 5 -105 22 -142 33 -73 79 -123 146 -160 58 -31 68 -33 157 -33 106 1 158
18 221 73 l35 31 -1 105 c0 58 -3 107 -5 110 -5 4 -94 8 -162 7 -31 -1 -38 -5
-38 -21 0 -22 3 -22 93 -21 31 0 58 -3 58 -7 1 -4 2 -42 3 -84 1 -74 0 -79
-27 -98 -71 -53 -204 -68 -288 -32 -56 24 -116 84 -143 142 -29 64 -28 196 2
262 77 166 270 212 434 104 26 -17 27 -17 37 3 10 18 7 24 -26 45 -21 14 -58
32 -82 41 -48 17 -157 19 -210 4z"/>
<path d="M3272 3178 c-28 -28 -1 -75 38 -63 20 6 24 16 20 45 -4 28 -37 39
-58 18z"/>
<path d="M846 3033 c-66 -20 -148 -101 -164 -163 -19 -75 -21 -109 -8 -160 33
-128 143 -202 286 -193 97 7 184 64 225 149 27 56 30 167 5 221 -23 51 -83
113 -135 138 -51 24 -145 28 -209 8z"/>
<path d="M1480 3031 c-74 -26 -143 -98 -164 -172 -63 -219 122 -393 349 -329
62 17 138 87 161 147 26 66 24 166 -3 218 -67 127 -208 183 -343 136z"/>
<path d="M3580 3019 c-14 -6 -37 -22 -52 -36 -28 -27 -31 -25 -31 20 0 11 -7
17 -23 17 l-24 0 0 -245 0 -245 23 0 23 0 1 174 c1 137 4 180 17 204 51 98
187 106 240 14 17 -30 19 -55 19 -213 l1 -179 23 0 24 0 -3 198 -3 199 -29 37
c-16 21 -44 44 -62 52 -38 16 -107 17 -144 3z"/>
<path d="M2460 3018 c0 -4 10 -31 104 -297 36 -102 66 -186 66 -188 0 -3 12
-3 27 -1 26 3 31 13 98 205 38 112 73 203 76 203 3 0 29 -69 59 -152 97 -277
89 -260 117 -256 24 3 32 20 109 237 46 129 84 238 84 243 0 4 -11 8 -24 8
-22 0 -28 -12 -70 -137 -26 -76 -59 -171 -75 -212 l-27 -74 -74 212 c-70 201
-75 211 -99 211 -25 0 -29 -10 -95 -203 -38 -111 -72 -205 -75 -209 -4 -4 -39
86 -78 200 -66 195 -72 207 -97 210 -14 2 -26 2 -26 0z"/>
<path d="M3272 2775 l1 -245 23 0 24 0 0 245 0 245 -24 0 -24 0 0 -245z"/>
<path d="M1538 2418 c-71 -9 -106 -27 -158 -79 -57 -57 -73 -100 -73 -189 -1
-58 4 -84 20 -115 47 -88 119 -135 218 -143 176 -14 310 111 300 279 -4 73
-24 118 -74 168 -35 35 -121 90 -121 77 0 -3 -12 -1 -27 3 -16 4 -54 4 -85 -1z"/>
<path d="M903 2380 c-162 -83 -190 -316 -52 -434 73 -62 179 -72 272 -26 48
24 62 45 51 74 -6 15 -9 15 -33 -7 -51 -47 -121 -62 -189 -42 -56 17 -93 52
-121 115 -59 129 27 288 159 295 46 2 112 -18 146 -44 21 -17 29 -19 36 -9 15
25 8 37 -38 64 -65 38 -171 44 -231 14z"/>
<path d="M2085 2385 c-16 -9 -37 -24 -47 -35 -22 -26 -25 -25 -24 8 1 21 -4
28 -21 30 -13 2 -23 0 -24 -5 0 -4 -2 -115 -2 -246 l-2 -238 25 3 25 3 0 171
c1 150 3 174 20 203 65 111 217 99 239 -19 2 -14 5 -101 5 -193 l1 -168 23 3
c22 3 22 5 24 171 1 147 4 172 22 211 26 53 76 79 135 71 90 -12 106 -54 106
-280 l0 -175 26 0 26 0 -4 193 c-3 170 -5 196 -23 226 -30 51 -67 74 -129 79
-65 5 -138 -24 -159 -64 l-13 -25 -23 32 c-41 56 -141 77 -206 44z"/>
<path d="M2910 2385 c-19 -9 -50 -30 -67 -47 l-32 -31 3 30 c5 37 -6 56 -30
51 -17 -3 -18 -20 -19 -330 0 -316 1 -327 20 -332 10 -3 21 -3 24 0 3 2 5 62
5 132 l1 127 37 -36 c89 -86 248 -73 327 27 59 75 66 228 14 312 -44 72 -97
104 -180 109 -48 2 -78 -1 -103 -12z m169 -49 c71 -37 106 -114 98 -214 -17
-221 -292 -256 -353 -45 -25 85 -1 186 54 236 50 45 138 55 201 23z"/>
<path d="M3382 2382 c-63 -23 -63 -22 -56 -49 l6 -21 46 21 c31 13 69 21 110
21 57 0 65 -2 94 -31 27 -27 32 -41 36 -93 2 -33 2 -60 0 -60 -2 0 -24 10 -48
21 -85 41 -211 11 -253 -61 -87 -147 94 -298 257 -216 47 24 48 24 53 5 3 -10
14 -19 25 -19 19 0 19 7 16 198 -4 217 -7 233 -65 272 -48 33 -146 38 -221 12z
m186 -238 c73 -43 68 -154 -10 -195 -35 -19 -105 -18 -146 2 -92 46 -90 155 3
203 34 18 116 13 153 -10z"/>
<path d="M3912 2383 c-18 -9 -42 -27 -52 -41 l-20 -25 0 37 c0 32 -3 36 -25
36 l-25 0 0 -245 0 -245 25 2 25 2 0 171 c0 147 3 175 19 205 50 94 172 103
235 17 19 -25 20 -43 21 -210 l1 -182 24 0 25 0 0 165 c1 179 -9 236 -47 277
-48 52 -141 68 -206 36z"/>
<path d="M4210 2386 c0 -2 45 -113 100 -245 l101 -241 -22 -47 c-12 -26 -27
-63 -34 -84 -13 -35 -12 -36 10 -36 21 0 35 28 154 321 72 176 131 324 131
329 0 4 -10 7 -23 7 -20 0 -31 -23 -106 -211 -46 -115 -85 -208 -87 -206 -3 2
-43 96 -89 208 -76 185 -86 204 -109 207 -14 2 -26 1 -26 -2z"/>
<path d="M1940 1553 l0 -103 50 0 c27 0 60 5 74 11 55 25 68 122 23 167 -19
19 -36 24 -86 26 l-61 3 0 -104z m122 60 c24 -29 29 -54 18 -89 -12 -35 -27
-45 -77 -49 l-33 -3 0 79 0 79 38 0 c25 0 44 -6 54 -17z"/>
<path d="M3129 1595 c0 -36 -1 -82 -1 -102 -1 -26 3 -38 12 -38 9 0 14 16 14
52 2 59 3 62 37 65 23 3 24 0 27 -59 2 -47 7 -63 17 -63 12 0 15 14 15 58 0
47 -4 63 -21 77 -16 16 -25 17 -48 9 -27 -11 -27 -10 -26 28 1 26 -3 38 -12
38 -9 0 -13 -18 -14 -65z"/>
<path d="M3284 1649 c-8 -14 18 -31 30 -19 9 9 0 30 -14 30 -5 0 -12 -5 -16
-11z"/>
<path d="M4230 1556 c0 -58 4 -106 9 -106 14 0 17 20 17 114 -1 62 -5 91 -13
94 -10 3 -13 -22 -13 -102z"/>
<path d="M3034 1618 c-4 -13 -12 -27 -18 -31 -8 -6 -8 -10 2 -14 7 -3 12 -23
12 -51 0 -26 4 -53 9 -60 9 -16 58 -12 53 3 -2 6 -10 9 -18 7 -15 -3 -16 3
-16 56 0 34 6 46 23 48 22 3 22 6 -1 13 -18 5 -24 13 -22 29 4 29 -15 28 -24
0z"/>
<path d="M2180 1593 c-25 -10 -39 -36 -40 -70 0 -61 75 -97 114 -54 54 60 -1
152 -74 124z m54 -29 c18 -18 20 -47 6 -75 -21 -39 -72 -14 -72 36 0 48 36 70
66 39z"/>
<path d="M2365 1580 c-22 -25 -13 -48 24 -61 55 -19 47 -56 -9 -44 -31 7 -42
-8 -14 -19 46 -18 84 1 84 41 0 17 -10 27 -36 38 -43 18 -40 41 5 37 36 -2 42
13 9 22 -36 9 -44 7 -63 -14z"/>
<path d="M2502 1583 c-50 -43 -24 -133 39 -133 57 0 91 75 55 123 -20 27 -68
32 -94 10z m62 -16 c35 -26 17 -97 -25 -97 -36 0 -52 66 -23 94 19 19 25 20
48 3z"/>
<path d="M2642 1523 c1 -54 4 -73 14 -73 10 0 14 16 14 59 0 46 4 60 17 65 24
10 38 -10 39 -57 3 -64 3 -67 14 -67 6 0 10 24 10 54 0 57 15 81 44 70 12 -5
16 -20 16 -65 0 -43 4 -59 13 -59 20 0 19 110 -1 133 -19 21 -46 22 -65 2 -11
-11 -16 -12 -19 -3 -3 8 -24 13 -51 13 l-46 0 1 -72z"/>
<path d="M2889 1582 c-28 -24 -31 -83 -4 -112 22 -24 77 -27 95 -5 12 14 8 15
-28 9 -38 -6 -43 -4 -51 17 -11 30 -1 36 49 32 37 -3 40 -1 40 21 0 26 -33 56
-61 56 -9 0 -27 -8 -40 -18z m69 -14 c21 -21 13 -28 -28 -28 -38 0 -40 2 -30
20 12 22 40 26 58 8z"/>
<path d="M3290 1524 c0 -56 3 -75 13 -71 8 2 12 25 12 63 1 66 -3 84 -16 84
-5 0 -9 -34 -9 -76z"/>
<path d="M3359 1585 c-2 -68 0 -127 4 -132 14 -13 23 11 22 57 -2 54 16 77 49
64 17 -7 19 -15 16 -81 -1 -32 2 -43 13 -43 11 0 15 15 16 58 1 48 -3 62 -19
77 -18 16 -26 17 -50 8 -20 -8 -31 -8 -39 0 -8 8 -11 5 -12 -8z"/>
<path d="M3527 1585 c-19 -18 -22 -50 -7 -60 6 -4 7 -13 1 -23 -4 -9 -6 -22
-4 -29 2 -6 -1 -14 -6 -18 -29 -17 8 -55 54 -55 37 0 65 21 65 50 0 24 -8 29
-54 32 -38 2 -45 22 -8 24 28 2 52 22 52 43 0 9 5 22 12 29 9 9 7 12 -9 12
-11 0 -34 3 -50 6 -21 4 -35 1 -46 -11z m62 -24 c8 -14 7 -22 -4 -31 -21 -17
-55 4 -48 30 7 25 39 26 52 1z m18 -118 c5 -15 -38 -27 -66 -18 -13 4 -18 12
-14 21 7 18 74 16 80 -3z"/>
<path d="M3706 1591 c-3 -5 5 -33 19 -63 26 -56 32 -93 15 -103 -14 -9 -12
-25 3 -25 11 0 87 165 87 190 0 26 -19 5 -40 -42 l-22 -53 -23 53 c-24 53 -30
59 -39 43z"/>
<path d="M3870 1580 c-11 -11 -20 -26 -21 -32 -7 -80 50 -123 109 -82 49 34
17 134 -43 134 -14 0 -34 -9 -45 -20z m70 -15 c18 -21 19 -64 3 -81 -31 -31
-67 -9 -67 41 0 49 37 73 64 40z"/>
<path d="M4010 1545 c0 -87 26 -114 81 -85 13 7 19 7 19 0 0 -5 5 -10 10 -10
6 0 10 32 10 76 0 56 -3 75 -12 72 -8 -3 -13 -24 -13 -57 -1 -51 -12 -70 -42
-71 -19 0 -26 19 -27 73 -1 31 -6 52 -13 55 -10 3 -13 -12 -13 -53z"/>
<path d="M4330 1593 c-42 -17 -54 -89 -20 -123 26 -26 72 -26 95 0 22 24 24
85 4 105 -17 17 -58 26 -79 18z m47 -21 c34 -22 21 -102 -17 -102 -45 0 -62
69 -24 97 20 15 25 15 41 5z"/>
<path d="M4462 1525 c17 -41 36 -75 43 -75 8 0 19 16 25 36 7 20 18 48 26 62
8 15 14 32 14 39 0 15 -30 5 -31 -11 0 -6 -8 -29 -18 -50 l-17 -39 -19 49
c-17 46 -30 63 -47 64 -4 0 7 -34 24 -75z"/>
<path d="M4609 1581 c-17 -13 -23 -29 -23 -56 0 -62 63 -96 110 -60 18 15 16
15 -23 10 -36 -6 -43 -4 -53 15 -15 27 -14 28 40 32 52 4 63 25 31 57 -26 26
-52 27 -82 2z m71 -21 c10 -18 8 -20 -30 -20 -41 0 -49 7 -28 28 18 18 46 14
58 -8z"/>
</g>
</svg>
